<svg width="694" height="95" viewBox="0 0 694 95" fill="none" xmlns="http://www.w3.org/2000/svg">
<rect width="693.068" height="95" fill="#ED6A21"/>
<path d="M98.4091 64H86.0341V29.0909H98.5114C102.023 29.0909 105.045 29.7898 107.58 31.1875C110.114 32.5739 112.063 34.5682 113.426 37.1705C114.801 39.7727 115.489 42.8864 115.489 46.5114C115.489 50.1477 114.801 53.2727 113.426 55.8864C112.063 58.5 110.102 60.5057 107.545 61.9034C105 63.3011 101.955 64 98.4091 64ZM93.4148 57.6761H98.1023C100.284 57.6761 102.119 57.2898 103.608 56.517C105.108 55.733 106.233 54.5227 106.983 52.8864C107.744 51.2386 108.125 49.1136 108.125 46.5114C108.125 43.9318 107.744 41.8239 106.983 40.1875C106.233 38.5511 105.114 37.3466 103.625 36.5739C102.136 35.8011 100.301 35.4148 98.1193 35.4148H93.4148V57.6761ZM132.649 64.5114C130.001 64.5114 127.712 63.9489 125.78 62.8239C123.859 61.6875 122.376 60.108 121.331 58.0852C120.286 56.0511 119.763 53.6932 119.763 51.0114C119.763 48.3068 120.286 45.9432 121.331 43.9205C122.376 41.8864 123.859 40.3068 125.78 39.1818C127.712 38.0455 130.001 37.4773 132.649 37.4773C135.297 37.4773 137.581 38.0455 139.501 39.1818C141.433 40.3068 142.922 41.8864 143.967 43.9205C145.013 45.9432 145.536 48.3068 145.536 51.0114C145.536 53.6932 145.013 56.0511 143.967 58.0852C142.922 60.108 141.433 61.6875 139.501 62.8239C137.581 63.9489 135.297 64.5114 132.649 64.5114ZM132.683 58.8864C133.888 58.8864 134.893 58.5455 135.7 57.8636C136.507 57.1705 137.115 56.2273 137.524 55.0341C137.945 53.8409 138.155 52.483 138.155 50.9602C138.155 49.4375 137.945 48.0795 137.524 46.8864C137.115 45.6932 136.507 44.75 135.7 44.0568C134.893 43.3636 133.888 43.017 132.683 43.017C131.467 43.017 130.445 43.3636 129.615 44.0568C128.797 44.75 128.178 45.6932 127.757 46.8864C127.348 48.0795 127.143 49.4375 127.143 50.9602C127.143 52.483 127.348 53.8409 127.757 55.0341C128.178 56.2273 128.797 57.1705 129.615 57.8636C130.445 58.5455 131.467 58.8864 132.683 58.8864ZM154.766 64L147.641 37.8182H154.987L159.044 55.4091H159.283L163.51 37.8182H170.72L175.016 55.3068H175.237L179.226 37.8182H186.555L179.447 64H171.76L167.26 47.5341H166.936L162.436 64H154.766ZM197.69 48.8636V64H190.429V37.8182H197.349V42.4375H197.656C198.236 40.9148 199.207 39.7102 200.571 38.8239C201.935 37.9261 203.588 37.4773 205.531 37.4773C207.349 37.4773 208.935 37.875 210.287 38.6705C211.639 39.4659 212.69 40.6023 213.44 42.0795C214.19 43.5455 214.565 45.2955 214.565 47.3295V64H207.304V48.625C207.315 47.0227 206.906 45.7727 206.077 44.875C205.247 43.9659 204.105 43.5114 202.651 43.5114C201.673 43.5114 200.81 43.7216 200.06 44.142C199.321 44.5625 198.741 45.1761 198.321 45.983C197.912 46.7784 197.702 47.7386 197.69 48.8636ZM227.55 29.0909V64H220.288V29.0909H227.55ZM245.196 64.5114C242.548 64.5114 240.259 63.9489 238.327 62.8239C236.406 61.6875 234.923 60.108 233.878 58.0852C232.832 56.0511 232.31 53.6932 232.31 51.0114C232.31 48.3068 232.832 45.9432 233.878 43.9205C234.923 41.8864 236.406 40.3068 238.327 39.1818C240.259 38.0455 242.548 37.4773 245.196 37.4773C247.844 37.4773 250.128 38.0455 252.048 39.1818C253.98 40.3068 255.469 41.8864 256.514 43.9205C257.56 45.9432 258.082 48.3068 258.082 51.0114C258.082 53.6932 257.56 56.0511 256.514 58.0852C255.469 60.108 253.98 61.6875 252.048 62.8239C250.128 63.9489 247.844 64.5114 245.196 64.5114ZM245.23 58.8864C246.435 58.8864 247.44 58.5455 248.247 57.8636C249.054 57.1705 249.662 56.2273 250.071 55.0341C250.491 53.8409 250.702 52.483 250.702 50.9602C250.702 49.4375 250.491 48.0795 250.071 46.8864C249.662 45.6932 249.054 44.75 248.247 44.0568C247.44 43.3636 246.435 43.017 245.23 43.017C244.014 43.017 242.991 43.3636 242.162 44.0568C241.344 44.75 240.724 45.6932 240.304 46.8864C239.895 48.0795 239.69 49.4375 239.69 50.9602C239.69 52.483 239.895 53.8409 240.304 55.0341C240.724 56.2273 241.344 57.1705 242.162 57.8636C242.991 58.5455 244.014 58.8864 245.23 58.8864ZM270.27 64.4943C268.599 64.4943 267.111 64.2045 265.804 63.625C264.497 63.0341 263.463 62.1648 262.702 61.017C261.952 59.858 261.577 58.4148 261.577 56.6875C261.577 55.233 261.844 54.0114 262.378 53.0227C262.912 52.0341 263.639 51.2386 264.56 50.6364C265.48 50.0341 266.526 49.5795 267.696 49.2727C268.878 48.9659 270.116 48.75 271.412 48.625C272.935 48.4659 274.162 48.3182 275.094 48.1818C276.026 48.0341 276.702 47.8182 277.122 47.5341C277.543 47.25 277.753 46.8295 277.753 46.2727V46.1705C277.753 45.0909 277.412 44.2557 276.73 43.6648C276.06 43.0739 275.105 42.7784 273.866 42.7784C272.56 42.7784 271.52 43.0682 270.747 43.6477C269.974 44.2159 269.463 44.9318 269.213 45.7955L262.497 45.25C262.838 43.6591 263.509 42.2841 264.509 41.125C265.509 39.9545 266.798 39.0568 268.378 38.4318C269.969 37.7955 271.81 37.4773 273.901 37.4773C275.355 37.4773 276.747 37.6477 278.077 37.9886C279.418 38.3295 280.605 38.858 281.639 39.5739C282.685 40.2898 283.509 41.2102 284.111 42.3352C284.713 43.4489 285.014 44.7841 285.014 46.3409V64H278.128V60.3693H277.923C277.503 61.1875 276.94 61.9091 276.236 62.5341C275.531 63.1477 274.685 63.6307 273.696 63.983C272.707 64.3239 271.565 64.4943 270.27 64.4943ZM272.349 59.483C273.418 59.483 274.361 59.2727 275.179 58.8523C275.997 58.4205 276.639 57.8409 277.105 57.1136C277.571 56.3864 277.804 55.5625 277.804 54.642V51.8636C277.577 52.0114 277.264 52.1477 276.866 52.2727C276.48 52.3864 276.043 52.4943 275.554 52.5966C275.065 52.6875 274.577 52.7727 274.088 52.8523C273.599 52.9205 273.156 52.983 272.759 53.0398C271.906 53.1648 271.162 53.3636 270.526 53.6364C269.889 53.9091 269.395 54.2784 269.043 54.7443C268.69 55.1989 268.514 55.767 268.514 56.4489C268.514 57.4375 268.872 58.1932 269.588 58.7159C270.315 59.2273 271.236 59.483 272.349 59.483ZM300.295 64.4261C298.307 64.4261 296.506 63.9148 294.892 62.892C293.29 61.858 292.017 60.3409 291.074 58.3409C290.142 56.3295 289.676 53.8636 289.676 50.9432C289.676 47.9432 290.159 45.4489 291.125 43.4602C292.091 41.4602 293.375 39.9659 294.977 38.9773C296.591 37.9773 298.358 37.4773 300.278 37.4773C301.744 37.4773 302.966 37.7273 303.943 38.2273C304.932 38.7159 305.727 39.3295 306.33 40.0682C306.943 40.7955 307.409 41.5114 307.727 42.2159H307.949V29.0909H315.193V64H308.034V59.8068H307.727C307.386 60.5341 306.903 61.2557 306.278 61.9716C305.665 62.6761 304.864 63.2614 303.875 63.7273C302.898 64.1932 301.705 64.4261 300.295 64.4261ZM302.597 58.6477C303.767 58.6477 304.756 58.3295 305.562 57.6932C306.381 57.0455 307.006 56.142 307.438 54.983C307.881 53.8239 308.102 52.4659 308.102 50.9091C308.102 49.3523 307.886 48 307.455 46.8523C307.023 45.7045 306.398 44.8182 305.58 44.1932C304.761 43.5682 303.767 43.2557 302.597 43.2557C301.403 43.2557 300.398 43.5795 299.58 44.2273C298.761 44.875 298.142 45.7727 297.722 46.9205C297.301 48.0682 297.091 49.3977 297.091 50.9091C297.091 52.4318 297.301 53.7784 297.722 54.9489C298.153 56.108 298.773 57.017 299.58 57.6761C300.398 58.3239 301.403 58.6477 302.597 58.6477ZM332.409 64V29.0909H346.182C348.83 29.0909 351.085 29.5966 352.949 30.608C354.813 31.608 356.233 33 357.21 34.7841C358.199 36.5568 358.693 38.6023 358.693 40.9205C358.693 43.2386 358.193 45.2841 357.193 47.0568C356.193 48.8295 354.744 50.2102 352.847 51.1989C350.96 52.1875 348.676 52.6818 345.994 52.6818H337.216V46.767H344.801C346.222 46.767 347.392 46.5227 348.312 46.0341C349.244 45.5341 349.938 44.8466 350.392 43.9716C350.858 43.0852 351.091 42.0682 351.091 40.9205C351.091 39.7614 350.858 38.75 350.392 37.8864C349.938 37.0114 349.244 36.3352 348.312 35.858C347.381 35.3693 346.199 35.125 344.767 35.125H339.79V64H332.409ZM363.351 64V37.8182H370.391V42.3864H370.663C371.141 40.7614 371.942 39.5341 373.067 38.7045C374.192 37.8636 375.487 37.4432 376.953 37.4432C377.317 37.4432 377.709 37.4659 378.129 37.5114C378.55 37.5568 378.919 37.6193 379.237 37.6989V44.142C378.896 44.0398 378.425 43.9489 377.822 43.8693C377.22 43.7898 376.669 43.75 376.169 43.75C375.101 43.75 374.146 43.983 373.305 44.4489C372.476 44.9034 371.817 45.5398 371.328 46.358C370.851 47.1761 370.612 48.1193 370.612 49.1875V64H363.351ZM399.781 52.8523V37.8182H407.043V64H400.071V59.2443H399.798C399.207 60.7784 398.224 62.0114 396.849 62.9432C395.486 63.875 393.821 64.3409 391.855 64.3409C390.105 64.3409 388.565 63.9432 387.236 63.1477C385.906 62.3523 384.866 61.2216 384.116 59.7557C383.378 58.2898 383.003 56.5341 382.991 54.4886V37.8182H390.253V53.1932C390.264 54.7386 390.679 55.9602 391.497 56.858C392.315 57.7557 393.412 58.2045 394.787 58.2045C395.662 58.2045 396.48 58.0057 397.241 57.608C398.003 57.1989 398.616 56.5966 399.082 55.8011C399.56 55.0057 399.793 54.0227 399.781 52.8523ZM434.635 45.2841L427.987 45.6932C427.874 45.125 427.629 44.6136 427.254 44.1591C426.879 43.6932 426.385 43.3239 425.771 43.0511C425.169 42.767 424.447 42.625 423.607 42.625C422.482 42.625 421.533 42.8636 420.76 43.3409C419.987 43.8068 419.601 44.4318 419.601 45.2159C419.601 45.8409 419.851 46.3693 420.351 46.8011C420.851 47.233 421.709 47.5795 422.925 47.8409L427.663 48.7955C430.209 49.3182 432.107 50.1591 433.357 51.3182C434.607 52.4773 435.232 54 435.232 55.8864C435.232 57.6023 434.726 59.108 433.714 60.4034C432.714 61.6989 431.339 62.7102 429.589 63.4375C427.851 64.1534 425.845 64.5114 423.572 64.5114C420.107 64.5114 417.345 63.7898 415.288 62.3466C413.243 60.892 412.044 58.9148 411.692 56.4148L418.834 56.0398C419.05 57.0966 419.572 57.9034 420.402 58.4602C421.232 59.0057 422.294 59.2784 423.589 59.2784C424.862 59.2784 425.885 59.0341 426.658 58.5455C427.442 58.0455 427.839 57.4034 427.851 56.6193C427.839 55.9602 427.561 55.4205 427.016 55C426.47 54.5682 425.629 54.2386 424.493 54.0114L419.959 53.108C417.402 52.5966 415.499 51.7102 414.249 50.4489C413.01 49.1875 412.391 47.5795 412.391 45.625C412.391 43.9432 412.845 42.4943 413.754 41.2784C414.675 40.0625 415.964 39.125 417.624 38.4659C419.294 37.8068 421.249 37.4773 423.487 37.4773C426.794 37.4773 429.396 38.1761 431.294 39.5739C433.203 40.9716 434.317 42.875 434.635 45.2841ZM447.27 64.4943C445.599 64.4943 444.111 64.2045 442.804 63.625C441.497 63.0341 440.463 62.1648 439.702 61.017C438.952 59.858 438.577 58.4148 438.577 56.6875C438.577 55.233 438.844 54.0114 439.378 53.0227C439.912 52.0341 440.639 51.2386 441.56 50.6364C442.48 50.0341 443.526 49.5795 444.696 49.2727C445.878 48.9659 447.116 48.75 448.412 48.625C449.935 48.4659 451.162 48.3182 452.094 48.1818C453.026 48.0341 453.702 47.8182 454.122 47.5341C454.543 47.25 454.753 46.8295 454.753 46.2727V46.1705C454.753 45.0909 454.412 44.2557 453.73 43.6648C453.06 43.0739 452.105 42.7784 450.866 42.7784C449.56 42.7784 448.52 43.0682 447.747 43.6477C446.974 44.2159 446.463 44.9318 446.213 45.7955L439.497 45.25C439.838 43.6591 440.509 42.2841 441.509 41.125C442.509 39.9545 443.798 39.0568 445.378 38.4318C446.969 37.7955 448.81 37.4773 450.901 37.4773C452.355 37.4773 453.747 37.6477 455.077 37.9886C456.418 38.3295 457.605 38.858 458.639 39.5739C459.685 40.2898 460.509 41.2102 461.111 42.3352C461.713 43.4489 462.014 44.7841 462.014 46.3409V64H455.128V60.3693H454.923C454.503 61.1875 453.94 61.9091 453.236 62.5341C452.531 63.1477 451.685 63.6307 450.696 63.983C449.707 64.3239 448.565 64.4943 447.27 64.4943ZM449.349 59.483C450.418 59.483 451.361 59.2727 452.179 58.8523C452.997 58.4205 453.639 57.8409 454.105 57.1136C454.571 56.3864 454.804 55.5625 454.804 54.642V51.8636C454.577 52.0114 454.264 52.1477 453.866 52.2727C453.48 52.3864 453.043 52.4943 452.554 52.5966C452.065 52.6875 451.577 52.7727 451.088 52.8523C450.599 52.9205 450.156 52.983 449.759 53.0398C448.906 53.1648 448.162 53.3636 447.526 53.6364C446.889 53.9091 446.395 54.2784 446.043 54.7443C445.69 55.1989 445.514 55.767 445.514 56.4489C445.514 57.4375 445.872 58.1932 446.588 58.7159C447.315 59.2273 448.236 59.483 449.349 59.483ZM497.831 39.1307C497.695 37.7557 497.109 36.6875 496.075 35.9261C495.041 35.1648 493.638 34.7841 491.865 34.7841C490.661 34.7841 489.643 34.9545 488.814 35.2955C487.984 35.625 487.348 36.0852 486.905 36.6761C486.473 37.267 486.257 37.9375 486.257 38.6875C486.234 39.3125 486.365 39.858 486.649 40.3239C486.945 40.7898 487.348 41.1932 487.859 41.5341C488.371 41.8636 488.962 42.1534 489.632 42.4034C490.303 42.642 491.018 42.8466 491.78 43.017L494.916 43.767C496.439 44.108 497.837 44.5625 499.109 45.1307C500.382 45.6989 501.484 46.3977 502.416 47.2273C503.348 48.0568 504.07 49.0341 504.581 50.1591C505.104 51.2841 505.371 52.5739 505.382 54.0284C505.371 56.1648 504.825 58.017 503.746 59.5852C502.678 61.142 501.132 62.3523 499.109 63.2159C497.098 64.0682 494.672 64.4943 491.831 64.4943C489.013 64.4943 486.558 64.0625 484.467 63.1989C482.388 62.3352 480.763 61.0568 479.592 59.3636C478.433 57.6591 477.825 55.5511 477.768 53.0398H484.911C484.99 54.2102 485.325 55.1875 485.916 55.9716C486.518 56.7443 487.32 57.3295 488.32 57.7273C489.331 58.1136 490.473 58.3068 491.746 58.3068C492.996 58.3068 494.081 58.125 495.001 57.7614C495.933 57.3977 496.655 56.892 497.166 56.2443C497.678 55.5966 497.933 54.8523 497.933 54.0114C497.933 53.2273 497.7 52.5682 497.234 52.0341C496.78 51.5 496.109 51.0455 495.223 50.6705C494.348 50.2955 493.274 49.9545 492.001 49.6477L488.2 48.6932C485.257 47.9773 482.933 46.858 481.229 45.3352C479.524 43.8125 478.678 41.7614 478.689 39.1818C478.678 37.0682 479.24 35.2216 480.376 33.642C481.524 32.0625 483.098 30.8295 485.098 29.9432C487.098 29.0568 489.371 28.6136 491.916 28.6136C494.507 28.6136 496.768 29.0568 498.7 29.9432C500.643 30.8295 502.155 32.0625 503.234 33.642C504.314 35.2216 504.871 37.0511 504.905 39.1307H497.831ZM517.472 29.0909V64H510.21V29.0909H517.472ZM523.288 64V37.8182H530.55V64H523.288ZM526.936 34.4432C525.857 34.4432 524.93 34.0852 524.158 33.3693C523.396 32.642 523.016 31.7727 523.016 30.7614C523.016 29.7614 523.396 28.9034 524.158 28.1875C524.93 27.4602 525.857 27.0966 526.936 27.0966C528.016 27.0966 528.936 27.4602 529.697 28.1875C530.47 28.9034 530.857 29.7614 530.857 30.7614C530.857 31.7727 530.47 32.642 529.697 33.3693C528.936 34.0852 528.016 34.4432 526.936 34.4432ZM548.196 64.5114C545.514 64.5114 543.207 63.9432 541.276 62.8068C539.355 61.6591 537.878 60.0682 536.844 58.0341C535.821 56 535.31 53.6591 535.31 51.0114C535.31 48.3295 535.827 45.9773 536.861 43.9545C537.906 41.9205 539.389 40.3352 541.31 39.1989C543.23 38.0511 545.514 37.4773 548.162 37.4773C550.446 37.4773 552.446 37.892 554.162 38.7216C555.878 39.5511 557.236 40.7159 558.236 42.2159C559.236 43.7159 559.787 45.4773 559.889 47.5H553.037C552.844 46.1932 552.332 45.142 551.503 44.3466C550.685 43.5398 549.611 43.1364 548.281 43.1364C547.156 43.1364 546.173 43.4432 545.332 44.0568C544.503 44.6591 543.855 45.5398 543.389 46.6989C542.923 47.858 542.69 49.2614 542.69 50.9091C542.69 52.5795 542.918 54 543.372 55.1705C543.838 56.3409 544.491 57.233 545.332 57.8466C546.173 58.4602 547.156 58.767 548.281 58.767C549.111 58.767 549.855 58.5966 550.514 58.2557C551.185 57.9148 551.736 57.4205 552.168 56.7727C552.611 56.1136 552.901 55.3239 553.037 54.4034H559.889C559.776 56.4034 559.23 58.1648 558.253 59.6875C557.287 61.1989 555.952 62.3807 554.247 63.233C552.543 64.0852 550.526 64.5114 548.196 64.5114ZM576.47 64.5114C573.777 64.5114 571.459 63.9659 569.516 62.875C567.584 61.7727 566.095 60.2159 565.05 58.2045C564.004 56.1818 563.482 53.7898 563.482 51.0284C563.482 48.3352 564.004 45.9716 565.05 43.9375C566.095 41.9034 567.567 40.3182 569.464 39.1818C571.374 38.0455 573.612 37.4773 576.18 37.4773C577.908 37.4773 579.516 37.7557 581.004 38.3125C582.504 38.858 583.811 39.6818 584.925 40.7841C586.05 41.8864 586.925 43.2727 587.55 44.9432C588.175 46.6023 588.487 48.5455 588.487 50.7727V52.767H566.379V48.267H581.652C581.652 47.2216 581.425 46.2955 580.97 45.4886C580.516 44.6818 579.885 44.0511 579.078 43.5966C578.283 43.1307 577.357 42.8977 576.3 42.8977C575.197 42.8977 574.22 43.1534 573.368 43.6648C572.527 44.1648 571.868 44.8409 571.391 45.6932C570.913 46.5341 570.669 47.4716 570.658 48.5057V52.7841C570.658 54.0795 570.896 55.1989 571.374 56.142C571.862 57.0852 572.55 57.8125 573.436 58.3239C574.322 58.8352 575.374 59.0909 576.589 59.0909C577.396 59.0909 578.135 58.9773 578.805 58.75C579.476 58.5227 580.05 58.1818 580.527 57.7273C581.004 57.2727 581.368 56.7159 581.618 56.0568L588.334 56.5C587.993 58.1136 587.294 59.5227 586.237 60.7273C585.192 61.9205 583.839 62.8523 582.18 63.5227C580.533 64.1818 578.629 64.5114 576.47 64.5114ZM593.226 64V37.8182H600.266V42.3864H600.538C601.016 40.7614 601.817 39.5341 602.942 38.7045C604.067 37.8636 605.362 37.4432 606.828 37.4432C607.192 37.4432 607.584 37.4659 608.004 37.5114C608.425 37.5568 608.794 37.6193 609.112 37.6989V44.142C608.771 44.0398 608.3 43.9489 607.697 43.8693C607.095 43.7898 606.544 43.75 606.044 43.75C604.976 43.75 604.021 43.983 603.18 44.4489C602.351 44.9034 601.692 45.5398 601.203 46.358C600.726 47.1761 600.487 48.1193 600.487 49.1875V64H593.226Z" fill="white"/>
</svg>
